<svg width="153" height="63" viewBox="0 0 153 63" fill="none" xmlns="http://www.w3.org/2000/svg">
<g id="STR-White 2" clip-path="url(#clip0_28_7474)">
<g id="Clip path group">
<mask id="mask0_28_7474" style="mask-type:luminance" maskUnits="userSpaceOnUse" x="0" y="0" width="153" height="63">
<g id="clippath">
<path id="Vector" d="M153 0H0V63H153V0Z" fill="white"/>
</g>
</mask>
<g mask="url(#mask0_28_7474)">
<g id="Group">
<path id="Vector_2" d="M12.8633 38.8827C9.08877 35.0814 6.74412 29.868 6.74412 24.1048C6.74412 12.5185 16.2182 3.08652 27.8685 3.08652C33.651 3.08652 38.9057 5.41828 42.728 9.17209L44.9269 6.98528C40.5392 2.66665 34.5155 0 27.8685 0C14.5119 0 3.63049 10.8091 3.63049 24.1048C3.63049 30.7052 6.32445 36.7058 10.6644 41.0595L12.8658 38.8702V38.8827H12.8633Z" fill="#1AA6C0"/>
<path id="Vector_3" d="M19.272 32.497C17.1309 30.3327 15.809 27.3686 15.809 24.1046C15.809 17.4942 21.2195 12.111 27.869 12.111C31.151 12.111 34.1314 13.4255 36.3077 15.5549L38.5066 13.3681C35.7649 10.6889 32.0155 9.02693 27.8665 9.02693C19.4981 9.02693 12.7054 15.7948 12.7054 24.1046C12.7054 28.2183 14.3766 31.9597 17.0706 34.6863L19.272 32.497Z" fill="#1AA6C0"/>
<path id="Vector_4" d="M25.6928 26.1238C25.2002 25.5965 24.8886 24.8917 24.8886 24.1019C24.8886 22.4625 26.223 21.1379 27.869 21.1379C28.6506 21.1379 29.3593 21.4378 29.8895 21.9276L32.0884 19.7508C30.9952 18.6987 29.5025 18.0539 27.869 18.0539C24.5142 18.0539 21.7725 20.768 21.7725 24.1169C21.7725 25.7439 22.4208 27.226 23.4788 28.3131L25.6802 26.1238H25.6928Z" fill="#1AA6C0"/>
<path id="Vector_5" d="M32.0761 24.1058C35.8507 27.9071 38.1953 33.1204 38.1953 38.8836C38.1953 50.4699 28.7087 59.9019 17.0584 59.9019C11.2759 59.9019 6.02119 57.5702 2.19889 53.8164L0 56.0032C4.38773 60.3193 10.4114 62.9985 17.0483 62.9985C30.4176 62.9985 41.2864 52.1894 41.2864 38.8936C41.2864 32.2807 38.5924 26.2926 34.2524 21.939L32.0636 24.1158L32.0761 24.1033V24.1058Z" fill="#2888AD"/>
<path id="Vector_6" d="M25.6672 30.4844C27.8083 32.6487 29.1302 35.6128 29.1302 38.8767C29.1302 45.4896 23.7197 50.8704 17.0702 50.8704C13.7882 50.8704 10.8078 49.5558 8.63151 47.4265L6.43262 49.6033C9.17432 52.2825 12.9237 53.9444 17.0727 53.9444C25.4411 53.9444 32.2338 47.1766 32.2338 38.8667C32.2338 34.753 30.5626 31.0117 27.8687 28.2851L25.6798 30.4619L25.6672 30.4869V30.4844Z" fill="#2888AD"/>
<path id="Vector_7" d="M19.2469 36.8623C19.7394 37.3897 20.041 38.1044 20.041 38.8842C20.041 40.5237 18.7066 41.8483 17.0605 41.8483C16.279 41.8483 15.5703 41.5484 15.03 41.046L12.8286 43.2353C13.9218 44.2875 15.4145 44.9323 17.048 44.9323C20.4028 44.9323 23.1445 42.2181 23.1445 38.8692C23.1445 37.2422 22.4962 35.7602 21.4382 34.673L19.2494 36.8498V36.8623H19.2469Z" fill="#2888AD"/>
<path id="Vector_8" d="M65.5344 51.6456C59.8348 51.6456 54.1001 49.6737 49.5792 45.6675L54.4721 39.8443C57.8521 42.6185 61.3979 44.3879 65.7027 44.3879C69.0802 44.3879 71.1258 43.0483 71.1258 40.8615V40.754C71.1258 38.6747 69.8392 37.61 63.5516 36.0081C55.9774 34.0837 51.0971 32.0018 51.0971 24.5767V24.4692C51.0971 17.6889 56.5679 13.2053 64.2502 13.2053C69.7211 13.2053 74.3978 14.9147 78.2075 17.9638L73.9153 24.1568C70.5855 21.86 67.3136 20.473 64.1422 20.473C60.9707 20.473 59.3096 21.92 59.3096 23.7245V23.8319C59.3096 26.2836 60.9205 27.0834 67.4116 28.7479C75.0336 30.7197 79.3258 33.4464 79.3258 39.9618V40.0693C79.3258 47.4944 73.6388 51.6556 65.5243 51.6556" fill="#15314c"/>
</g>
</g>
</g>
<path id="Vector_9" d="M102.732 21.3215V51.117H94.4613V21.3215H83.0271V13.7289H114.166V21.3215H102.732Z" fill="#15314c"/>
<g id="Clip path group_2">
<mask id="mask1_28_7474" style="mask-type:luminance" maskUnits="userSpaceOnUse" x="0" y="0" width="153" height="63">
<g id="clippath-1">
<path id="Vector_10" d="M153 0H0V63H153V0Z" fill="white"/>
</g>
</mask>
<g mask="url(#mask1_28_7474)">
<g id="Group_2">
<path id="Vector_11" d="M131.84 31.8681L143.335 51.117H153L143.815 37.7613C148.6 36.0043 151.869 32.2005 151.869 26.1749V26.0675C151.869 18.3799 146.554 13.7289 137.693 13.7289H120.514V51.1045H128.785V21.154H136.997C141.026 21.154 143.488 22.9709 143.488 26.4973V26.6048C143.488 29.7613 141.181 31.8906 137.153 31.8906L131.838 31.8656L131.84 31.8681Z" fill="#15314c"/>
</g>
</g>
</g>
</g>
<defs>
<clipPath id="clip0_28_7474">
<rect width="153" height="63" fill="white"/>
</clipPath>
</defs>
</svg>
